<?xml version="1.0" encoding="UTF-8"?>
<svg width="200px" height="200px" viewBox="0 0 200 200" version="1.1" xmlns="http://www.w3.org/2000/svg" xmlns:xlink="http://www.w3.org/1999/xlink">
    <title>discovery</title>
    <g id="Page-1" stroke="none" stroke-width="1" fill="none" fill-rule="evenodd">
        <g id="discovery" fill="#f8f8f8" fill-rule="nonzero">
            <path d="M100,0 C44.7724138,0 0,44.7724138 0,100 C0,155.227586 44.7724138,200 100,200 C155.227586,200 200,155.227586 200,100 C200,44.7724136 155.227586,0 100,0 Z M100,183.908046 C53.7333334,183.908046 16.091954,146.266667 16.091954,99.9999999 C16.091954,53.7333332 53.7333334,16.091954 100,16.091954 C146.266667,16.091954 183.908046,53.7333334 183.908046,99.9999999 C183.908046,146.266666 146.266667,183.908046 100,183.908046 Z" id="Shape"></path>
            <path d="M143.993103,56.0091954 C141.351724,53.3678161 134.82069,55.356322 127.687356,60.4551725 L86.7632185,86.767816 L60.4505748,127.687356 C55.3517243,134.822989 53.3678161,141.351724 56.0068966,143.993103 C58.645977,146.634483 65.1770115,144.648276 72.3103448,139.547126 L113.234483,113.23908 L139.544828,72.3172413 C144.643678,65.1793103 146.632184,58.6505747 143.993103,56.0091954 Z M104.917241,104.921839 L77.367816,122.634483 L95.0804597,95.0850574 L122.629885,77.3724137 L104.917241,104.921839 Z" id="Shape"></path>
        </g>
    </g>
</svg>