<?xml version="1.0" encoding="UTF-8"?>
<svg width="200px" height="200px" viewBox="0 0 200 200" version="1.1" xmlns="http://www.w3.org/2000/svg" xmlns:xlink="http://www.w3.org/1999/xlink">
    <title>query</title>
    <g id="Page-1" stroke="none" stroke-width="1" fill="none" fill-rule="evenodd">
        <g id="query" fill="#f8f8f8" fill-rule="nonzero">
            <path d="M174.033413,200 L125.243517,200 L125.243517,186.060342 L174.033413,186.060342 C180.742307,186.047006 186.173124,180.603598 186.170443,173.895175 L186.170443,124.958901 L199.999889,124.958901 L199.999889,173.895175 C199.997451,188.256798 188.395849,199.920213 174.033413,200 L174.033413,200 Z M186.122089,26.0999903 C186.127491,19.3841529 180.701305,13.9280942 173.985058,13.8961415 L125.243517,13.8961415 L125.243517,0 L174.033413,0 C188.409933,0.0506538767 200.029323,11.7341165 199.999944,26.1096605 L199.999944,75.0459336 L186.122089,75.0459336 L186.122089,26.1096605 L186.122089,26.0999903 Z M13.8342805,26.1435064 L13.8342805,75.0362635 L0.00483532423,75.0362635 L0.00483532423,26.1096605 C0.00483532423,11.7273735 11.6364423,0.0532676332 26.0196659,0 L74.7612068,0 L74.7612068,13.9348225 L26.0196659,13.9348225 C19.291472,13.9614014 13.8475249,19.4157574 13.8342805,26.1435064 Z M6.96791254,93.6998356 L192.311491,93.6998356 C196.159763,93.6998356 199.279404,96.8192519 199.279404,100.667247 C199.279404,104.515242 196.159763,107.634658 192.311491,107.634658 L6.96791254,107.634658 C3.11964066,107.634658 0,104.515242 0,100.667247 C0,96.819252 3.11964066,93.6998356 6.96791254,93.6998356 L6.96791254,93.6998356 Z M13.8826351,173.895175 C13.8958932,180.622132 19.3406082,186.075097 26.0680205,186.099023 L74.7612068,186.099023 L74.7612068,200 L26.0196659,200 C19.1128896,199.983356 12.4958986,197.222547 7.62567897,192.325472 C2.75545938,187.428397 0.0313576045,180.796604 0.0530597144,173.89034 L0.0530597144,124.958901 L13.8826351,124.958901 L13.8826351,173.895175 L13.8826351,173.895175 Z" id="Shape"></path>
        </g>
    </g>
</svg>