<?xml version="1.0" encoding="UTF-8"?>
<svg width="600px" height="600px" viewBox="0 0 600 600" version="1.1" xmlns="http://www.w3.org/2000/svg" xmlns:xlink="http://www.w3.org/1999/xlink">
    <title>SQLPad</title>
    <defs>
        <linearGradient x1="53.0216005%" y1="31.7927677%" x2="81.1861567%" y2="52.4375243%" id="linearGradient-1">
            <stop stop-color="#2258FF" offset="0%"></stop>
            <stop stop-color="#AF81FF" offset="100%"></stop>
        </linearGradient>
    </defs>
    <g id="SQLPad" stroke="none" stroke-width="1" fill="none" fill-rule="evenodd">
        <path d="M40.0508498,164.889235 L213.840318,464.646688 C217.611665,467.002828 220.369236,468.326384 222.113033,468.617356 C227.735224,469.555481 232.318558,467.466271 234.443012,466.316558 C237.555857,464.631948 239.825768,459.130302 241.252746,449.811622 L66.4843821,147.887055 C56.762594,144.741512 50.3725935,144.206945 47.3143806,146.283352 C44.2561677,148.35976 41.8349907,154.561721 40.0508498,164.889235 Z" id="Path-5" fill="#2258FF"></path>
        <path d="M115.382074,164.301661 L250.586624,398.34386 C255.139685,401.155882 258.40973,402.737072 260.39676,403.087429 C265.404806,403.970456 269.644254,401.752702 271.46131,400.521851 C273.413754,399.199288 275.685505,396.100308 276.545567,390.581439 C276.823389,388.798702 276.823389,385.524751 276.545567,380.759586 L140.651798,149.111792 C131.104603,146.002165 124.878075,145.320721 121.972215,147.067461 C119.066355,148.814201 116.869642,154.558934 115.382074,164.301661 Z" id="Path-7" fill="#2258FF"></path>
        <path d="M190.249814,163.180442 L362.407632,462.330452 C368.674537,465.62097 373.287732,467.266229 376.247217,467.266229 C379.206701,467.266229 382.565998,465.62097 386.325107,462.330452 L561.175206,163.180442 C562.60109,158.510762 562.60109,154.899795 561.175206,152.347542 C559.749322,149.795288 556.173591,147.10906 550.448014,144.288858 L424.780762,144.288858 C418.708933,151.405204 413.917522,157.702399 410.406529,163.180442 C406.895535,168.658485 402.700199,172.129232 397.820522,173.592683 C394.069147,175.720388 390.237343,175.01692 386.325107,171.482279 C382.412872,167.947639 376.110708,159.495232 367.418614,146.125059 C358.548009,144.770761 352.60477,144.770761 349.588898,146.125059 C346.573026,147.479357 344.029666,151.290323 341.958817,157.557957 L341.958817,163.180442 L372.014276,218.205244 C372.815195,223.59324 372.815195,227.239754 372.014276,229.144784 C371.213357,231.049815 368.769389,233.923213 364.682373,237.76498 C361.826375,238.80906 359.246554,239.511559 356.942911,239.872476 C354.639268,240.233393 351.217502,239.530894 346.677614,237.76498 L292.631634,146.125059 C282.50356,144.186937 275.922023,144.186937 272.887025,146.125059 C269.852026,148.063181 267.530947,153.748309 265.923787,163.180442 L334.64583,284.097261 C334.721255,293.613556 332.628191,299.686494 328.366638,302.316074 C324.105085,304.945654 317.337274,304.340296 308.063205,300.5 L220.157093,150.107225 C215.444386,147.238682 212.147573,145.551236 210.266655,145.044887 C205.199224,143.680721 201.659926,145.181142 199.50055,146.125059 C196.138904,147.594518 193.055326,153.279646 190.249814,163.180442 Z" id="Path-21" fill="url(#linearGradient-1)"></path>
    </g>
</svg>