<?xml version="1.0" encoding="UTF-8"?>
<svg width="176px" height="176px" viewBox="0 0 176 176" version="1.1" xmlns="http://www.w3.org/2000/svg" xmlns:xlink="http://www.w3.org/1999/xlink">
    <title>sqlpad</title>
    <g id="Page-1" stroke="none" stroke-width="1" fill="none" fill-rule="evenodd">
        <g id="sqlpad" transform="translate(0.488193, 0.488272)" fill="#f8f8f8" fill-rule="nonzero">
            <path d="M99.9659086,162.489267 L31.2159086,162.489267 C26.2477853,162.493417 21.4819507,160.521676 17.9689558,157.008681 C14.4559609,153.495686 12.4842193,148.729851 12.4883696,143.761728 L12.4883696,31.2617281 C12.4883696,26.2523531 14.4278227,21.5336031 17.9692289,17.9916109 C21.5106352,14.4496187 26.2079008,12.4882906 31.2159086,12.4882906 L143.715909,12.4882906 C154.080487,12.4972289 162.480408,20.8971495 162.489346,31.2617281 L162.489346,100.011728 C162.489346,103.460272 165.284943,106.255869 168.733487,106.255869 C172.18203,106.255869 174.977628,103.460272 174.977628,100.011728 L174.977628,31.2617281 C174.977628,22.9701442 171.685977,15.0177306 165.822941,9.15469528 C159.959906,3.29165998 152.007493,0 143.715909,0 L31.2159086,0 C22.9270387,-0.00639546732 14.976489,3.28665281 9.11967852,9.1520749 C3.26286804,15.017497 -0.0184951203,22.9728765 0,31.2617281 L0,143.761728 C-0.0196284354,152.046707 3.26283985,159.998034 9.12122125,165.856415 C14.9796027,171.714797 22.9309297,174.997265 31.2159086,174.977637 L99.9659086,174.977637 C103.414452,174.977637 106.210049,172.181951 106.210049,168.733408 C106.210049,165.284864 103.414452,162.489267 99.9659086,162.489267 L99.9659086,162.489267 Z" id="Path"></path>
            <path d="M168.249502,135.599228 L151.924307,119.274033 C144.577138,111.930153 133.231488,110.394 124.195987,115.519736 C123.971548,115.186773 123.715689,114.876105 123.431924,114.592002 L114.511612,105.670908 C121.333799,96.9083397 125.030281,86.1163006 125.013174,75.0111421 C125.013174,47.3970796 102.627237,25.0111421 75.0131743,25.0111421 C47.3991118,25.0111421 25.0120024,47.397275 25.0120024,75.0117281 C25.0120024,102.626181 47.3979399,125.011728 75.0120024,125.011728 C86.1167321,125.029051 96.9084521,121.333066 105.670987,114.511533 L114.592081,123.432627 C114.876184,123.716391 115.186852,123.97225 115.519815,124.196689 C110.51044,133.006845 111.760049,144.411533 119.274112,151.925009 L135.599307,168.250009 C139.928984,172.57971 145.8013,175.012113 151.924405,175.012113 C158.047509,175.012113 163.919826,172.57971 168.249502,168.250009 C177.265713,159.233017 177.265713,144.614658 168.249502,135.599228 L168.249502,135.599228 Z M89.6055571,109.572666 C77.9340889,114.51263 64.5556809,113.21154 54.0547758,106.115244 C48.0203521,102.042731 43.296222,96.307872 40.4545805,89.6052828 C35.5145012,77.9338796 36.8154448,64.5554753 43.9116118,54.0545015 C47.9841767,48.0200486 53.7191071,43.2959156 60.421768,40.4543062 C72.0931712,35.5142269 85.4715755,36.8151705 95.9725493,43.9113375 C102.007002,47.9839024 106.731135,53.7188328 109.572745,60.4214937 C114.512767,72.0929294 113.211749,85.4713355 106.115518,95.972275 C102.043005,102.006699 96.3081463,106.730829 89.6055571,109.57247 L89.6055571,109.572666 Z M159.411612,159.413681 C155.276974,163.548137 148.573594,163.548137 144.438956,159.413681 L128.112588,143.086533 C123.977626,138.95157 123.977626,132.247472 128.112588,128.112509 C132.247551,123.977547 138.951649,123.977547 143.086612,128.112509 L159.411612,144.437705 C163.54569,148.57272 163.545078,155.2761 159.410245,159.410361 L159.411612,159.413681 Z" id="Shape"></path>
        </g>
    </g>
</svg>