<?xml version="1.0" encoding="UTF-8"?>
<svg width="200px" height="200px" viewBox="0 0 200 200" version="1.1" xmlns="http://www.w3.org/2000/svg" xmlns:xlink="http://www.w3.org/1999/xlink">
    <title>flow</title>
    <g id="Page-1" stroke="none" stroke-width="1" fill="none" fill-rule="evenodd">
        <g id="flow" fill="#f8f8f8" fill-rule="nonzero">
            <path d="M166.666667,183.333334 C160.710752,183.331845 155.208053,180.153026 152.231385,174.994308 C149.254716,169.83559 149.256305,163.480704 152.235551,158.323475 C155.214798,153.166245 160.719085,149.990178 166.675,149.991666 C175.882047,149.993968 183.343968,157.45962 183.341667,166.666667 C183.339365,175.873714 175.873714,183.335634 166.666667,183.333334 M50.0000005,166.666667 C49.9985114,172.622582 46.819693,178.12528 41.6609749,181.101949 C36.5022568,184.078617 30.147371,184.077029 24.9901416,181.097782 C19.8329121,178.118535 16.6568447,172.614248 16.6583328,166.658333 C16.6598219,160.702418 19.8386404,155.19972 24.9973584,152.223051 C30.1560765,149.246383 36.5109623,149.247971 41.6681918,152.227218 C46.8254213,155.206465 50.0014886,160.710752 50.0000005,166.666667 M83.3333328,33.3333333 C83.3348219,27.3774182 86.5136404,21.8747199 91.6723584,18.8980515 C96.8310765,15.9213831 103.185962,15.9229714 108.343192,18.9022182 C113.500421,21.8814649 116.676489,27.3857516 116.675001,33.3416667 C116.672699,42.5487137 109.207047,50.0106345 100,50.0083339 C90.792953,50.0060321 83.3310321,42.5403804 83.3333328,33.3333333 M175,134.516667 L175,91.6666667 L108.333333,91.6666667 L108.333333,65.4833333 C122.675,61.7583333 133.333333,48.8166667 133.333333,33.3333333 C133.333333,14.95 118.375,0 100,0 C81.6166667,0 66.6666667,14.95 66.6666667,33.3333333 C66.6666667,48.8166667 77.325,61.7583333 91.6666667,65.4833333 L91.6666667,91.6666667 L25,91.6666667 L25,134.516667 C10.6583333,138.241667 0,151.183333 0,166.666667 C0,185.05 14.95,200 33.3333333,200 C51.7083333,200 66.6666667,185.05 66.6666667,166.666667 C66.6666667,151.183333 56.0083333,138.241667 41.6666667,134.516667 L41.6666667,108.333333 L158.333333,108.333333 L158.333333,134.516667 C143.991667,138.241667 133.333333,151.183333 133.333333,166.666667 C133.333333,185.05 148.283333,200 166.666667,200 C185.041667,200 200,185.05 200,166.666667 C200,151.183333 189.341667,138.241667 175,134.516667" id="Shape"></path>
        </g>
    </g>
</svg>