<?xml version="1.0" encoding="UTF-8"?>
<svg width="201px" height="169px" viewBox="0 0 201 169" version="1.1" xmlns="http://www.w3.org/2000/svg" xmlns:xlink="http://www.w3.org/1999/xlink">
    <title>observe</title>
    <g id="Page-1" stroke="none" stroke-width="1" fill="none" fill-rule="evenodd">
        <g id="observe" transform="translate(0.439599, 0.785352)" fill="#f8f8f8" fill-rule="nonzero">
            <path d="M178.528125,66.3991902 C174.84212,66.3991902 171.373294,67.3464018 168.342405,69.0142236 L139.957929,42.7649503 C142.056133,38.7073284 143.245586,34.085483 143.245586,29.180044 C143.245586,13.0644528 130.427771,0 114.616419,0 C98.8050678,0 85.9872533,13.0644528 85.9872533,29.180044 C85.9872533,39.4548391 91.1982089,48.4881144 99.0725716,53.6871776 L80.7832314,109.709443 C80.1307193,109.66357 79.4768666,109.640303 78.8228045,109.639684 C72.8006146,109.639684 67.208086,111.546417 62.5920802,114.796117 L41.4552563,96.0919367 C42.4161227,93.6077575 42.9437493,90.9013084 42.9437493,88.0694763 C42.9437493,75.9827829 33.3303884,66.1844433 21.4718746,66.1844433 C9.61336087,66.1844433 -6.10267382e-15,75.9827829 -6.10267382e-15,88.0694763 C-6.10267382e-15,100.15617 9.61336087,109.954509 21.4718746,109.954509 C25.3256288,109.954509 28.9416267,108.918846 32.0682448,107.107175 L53.2023847,125.809076 C51.278639,129.728549 50.1936383,134.147273 50.1936383,138.819956 C50.1936383,154.909787 63.0365033,168 78.8228045,168 C94.6091056,168 107.451971,154.909787 107.451971,138.819956 C107.451971,128.564994 102.234081,119.529667 94.3630737,114.324221 L112.655993,58.2905575 C113.303951,58.3352394 113.957278,58.360088 114.616196,58.360088 C120.422772,58.360088 125.824514,56.5965191 130.336963,53.5684057 L158.722334,79.8185909 C157.649635,82.4229098 157.056251,85.2827821 157.056251,88.2842232 C157.056251,100.370917 166.669612,110.169256 178.528125,110.169256 C190.386639,110.169256 200,100.370917 200,88.2842232 C200,76.1975298 190.386639,66.3991902 178.528125,66.3991902 Z M78.8230281,153.409978 C70.9298776,153.409978 64.508445,146.864985 64.508445,138.819956 C64.508445,130.774927 70.9298776,124.229934 78.8230281,124.229934 C86.7161787,124.229934 93.1376112,130.774927 93.1376112,138.819956 C93.1376112,146.864985 86.7159551,153.409978 78.8230281,153.409978 Z" id="Shape"></path>
        </g>
    </g>
</svg>