<?xml version="1.0" encoding="UTF-8"?>
<svg width="201px" height="200px" viewBox="0 0 201 200" version="1.1" xmlns="http://www.w3.org/2000/svg" xmlns:xlink="http://www.w3.org/1999/xlink">
    <title>process</title>
    <g id="Page-1" stroke="none" stroke-width="1" fill="none" fill-rule="evenodd">
        <g id="process" transform="translate(0.007231, 0.000000)" fill="#f8f8f8" fill-rule="nonzero">
            <path d="M132.533865,30.1764 L127.415455,42.2348 L161.016722,31.5748 L145.343491,0 L140.01188,12.56 C107.143414,-1.7304 67.7533355,3.0184 38.988478,28.0236 L51.5533031,42.4528 C74.6317493,22.3912 106.143012,18.6204 132.533865,30.1764 Z M67.4669349,169.8236 L72.5853452,157.7656 L38.984078,168.4248 L54.6569093,200 L59.98852,187.44 C92.8565857,201.7308 132.246664,196.9816 161.012322,171.9768 L148.446697,157.5476 C125.369051,177.6088 93.8577877,181.3796 67.4669349,169.8236 Z M30.1764604,67.2904 L42.2348845,72.4088 L31.5748631,38.8076 L5.57955483e-15,54.4808 L12.5596251,59.8124 C-1.73040346,92.6804 3.01800604,132.0704 28.023256,160.836 L42.4524849,148.2708 C22.3912448,125.1924 18.6204372,93.6812 30.1764604,67.2904 Z M187.440375,139.8356 C201.730803,106.9672 196.981994,67.5772 171.977144,38.812 L157.547915,51.3772 C177.609555,74.4552 181.379963,105.9664 169.82354,132.3572 L157.765516,127.2388 L168.425137,160.84 L200,145.1664 L187.440375,139.8356 Z" id="Shape"></path>
        </g>
    </g>
</svg>