<?xml version="1.0" encoding="UTF-8"?>
<svg width="200px" height="152px" viewBox="0 0 200 152" version="1.1" xmlns="http://www.w3.org/2000/svg" xmlns:xlink="http://www.w3.org/1999/xlink">
    <title>storage</title>
    <g id="Page-1" stroke="none" stroke-width="1" fill="none" fill-rule="evenodd">
        <g id="storage" fill="#f8f8f8" fill-rule="nonzero">
            <path d="M106.25,0 C135.483333,0 159.233333,23.657759 161.958333,53.8092864 C184.024516,58.2683518 199.987654,78.6665134 200,102.420034 C200,129.795413 179.016043,151.99027 153.125,152 L40.625,151.982378 C29.8505801,151.982378 19.5174524,147.456877 11.898787,139.401433 C4.28012164,131.34599 0,120.420464 0,109.028346 C0,93.168396 8.20833333,79.5112167 20.2916667,72.0570402 C19.3082342,69.0724065 18.787629,65.9392962 18.75,62.7789693 C18.7545998,46.3574681 31.3438971,33.0464263 46.875,33.0415628 C49.75,33.0856182 52.6083333,33.5966611 55.3333333,34.5658802 C64.2666667,14.1858443 83.625,0 106.25,0 Z M106.25,16.6529477 C89.375,16.6529477 75.1,25.4640311 67.925,41.8085908 C64.5416667,49.5975885 63.7583333,52.4876239 56.5916667,49.4742334 C52.2333333,47.6327169 48.1333333,47.9499159 48.1333333,47.9499159 C39.5166667,47.9499159 32.5083333,55.351226 32.5083333,64.4706974 C32.5416667,66.2064808 32.8416667,67.9334531 33.4083333,69.5811257 C37,78.9208742 36.4083333,79.9517709 27.8416667,85.1503101 C19.025,90.5867486 13.7583333,98.4550461 13.7583333,109.028346 C13.775,125.443395 26.3583333,136.783259 41.8833333,136.818503 L150.183333,136.800881 C169.133333,136.800881 184.558333,122.465248 184.558333,102.420034 C184.533333,85.0093328 172.841667,71.7574633 156.675,68.4709292 C147.341667,66.2152919 147.341667,66.2152919 146.583333,56.7521883 C144.408333,32.8917744 128.75,16.6617587 106.25,16.6617587 L106.25,16.6529477 Z M136.25,106.869631 L136.25,122.764825 L64.2,122.764825 L64.2,106.878442 L136.25,106.878442 L136.25,106.869631 Z M97.7166667,112.508724 L70.15,112.508724 L70.15,117.143354 L97.7166667,117.143354 L97.7166667,112.499913 L97.7166667,112.508724 Z M136.25,83.3528491 L136.25,99.2568547 L64.2,99.2568547 L64.2,83.3528491 L136.25,83.3528491 Z M130.3,88.9831314 L102.733333,88.9831314 L102.733333,93.6177613 L130.3,93.6177613 L130.3,88.9919425 L130.3,88.9831314 Z M136.25,59.8360675 L136.25,75.731262 L64.2,75.731262 L64.2,59.8360675 L136.25,59.8360675 Z M97.7166667,65.4575387 L70.15,65.4575387 L70.15,70.1009797 L97.7166667,70.1009797 L97.7166667,65.4575387 Z" id="Shape"></path>
        </g>
    </g>
</svg>